<?xml version="1.0" encoding="utf-8"?>
<!-- Generator: Adobe Illustrator 25.0.1, SVG Export Plug-In . SVG Version: 6.00 Build 0)  -->
<svg version="1.1" id="Layer_1" xmlns="http://www.w3.org/2000/svg" xmlns:xlink="http://www.w3.org/1999/xlink" x="0px" y="0px"
	 viewBox="0 0 265 595.3" style="enable-background:new 0 0 265 595.3;" xml:space="preserve">
<path d="M107.6,444.1c-3-0.6-5.7-1-8.3-1.6c-17-3.9-32.1-11.7-45.9-21.9c-11.2-8.3-20.7-18.1-27.8-30c-7.8-13-11.9-26.9-11-41.9
	c0.9-14.8,5.9-28.1,16.5-39c15.9-16.2,39.8-20.8,61.2-11.6c16.2,6.9,27.5,18.7,34.6,34.4c5.8,12.9,7.7,26.5,7,40.5
	c-0.7,13.4-3.7,26.4-7.2,39.3c-1.9,6.9-3.9,13.8-5.9,20.8c-0.2,0.7-0.3,1.3-0.6,2.2c0.6,0.1,1.1,0.2,1.7,0.2
	c21.4-0.8,38.5-9.1,50.1-27.2c5.9-9.3,9.5-19.5,11.5-30.2c4.3-23.2,2-46-5.3-68.4c-3.3-10.2-7.6-20-12.7-29.5
	c-6-11.4-12.4-22.6-18.5-33.9c-4-7.4-7.8-14.8-11.7-22.3c-0.6-1.1-1.3-1.7-2.4-2.1c-39.5-14.8-72.3-38.6-99.7-69.7
	C23,140.6,14.6,127.8,8.5,113.7c-4.2-9.7-7-19.8-8-30.3c-1.2-13.7,1.6-26.7,7.9-38.9C18.6,24.7,35,12,56.4,5
	C69.9,0.6,83.9-0.7,98-0.1c13.3,0.6,26.1,3.4,38.1,8.9c17.1,7.7,29.7,19.8,36.9,36.9c3.8,9.1,5.4,18.5,4.5,28.3
	c-1.2,12.5-7.2,22.4-17.4,30c-7.9,5.8-16.9,8.9-26.7,9.7c-17.8,1.3-33.3-4-46.2-16c-8.5-7.9-11.9-17.8-11.3-29.1
	c0.2-3.9,0.7-7.8,2-11.5c0.7-2,1.4-4,2.4-5.9c4-7.4,10.5-11.1,19.1-11c6.1,0.1,11.9,1.8,17.5,4.2c0.8,0.4,1.6,0.9,2.2,1.5
	c1.8,1.7,1.9,4.3,0.5,6.2c-1.4,1.9-4.1,2.6-6.2,1.3c-3.1-1.9-6.6-2.6-10.1-3.4c-0.3-0.1-0.5-0.1-0.8-0.2c-7.5-1.2-12.3,1.5-14.7,8.5
	c-2.3,6.5-2.7,13.1-1.2,19.8c1,4.8,3.6,8.7,7.1,12.1c7.7,7.6,17,12.1,27.8,13.6c9.6,1.4,18.8,0.2,27.5-4.1
	c8.7-4.4,15-10.9,17.9-20.3c1.7-5.6,1.8-11.3,0.9-17.1c-2.7-17.2-11.7-30.5-26.5-40.1c-9-5.8-18.9-9.3-29.5-11.2
	c-18.6-3.3-36.9-2.3-54.7,4c-21.6,7.6-36.4,22.1-43.7,43.4c-3.9,11.3-3.9,22.8-1.3,34.4c2.2,9.8,6,19.1,10.9,27.9
	c5.2,9.3,11.3,18,18.4,26c22.3,25.4,48.9,45.6,79.8,60.1c2.6,1.2,5.3,2.3,7.9,3.4c0.2,0.1,0.4,0.1,0.9,0.1c-0.2-0.9-0.4-1.6-0.6-2.4
	c-4.4-17.8,0.4-33,14-45.5c4.1-3.8,8.8-6.8,13.9-9.3c5.9-2.9,12.2-5,18.7-6.3c19.1-3.8,37.8-2.5,55.9,4.7
	c9.2,3.7,17.3,9.1,23.9,16.5c3.7,4.1,6.6,8.7,8.3,13.9c2.6,8.1,1.6,15.8-2.9,23.1c-2.5,4-5.9,7.3-9.7,10.2
	c-7.7,5.8-16.4,9.6-25.6,12.3c-13.3,3.9-26.9,5.1-40.7,4.7c-12-0.3-23.8-2.1-35.4-5.1c-0.6-0.2-1.2-0.2-2.1-0.4
	c0.5,0.9,0.8,1.6,1.1,2.3c5.8,10.4,11.5,20.8,17.3,31.2c6.9,12.5,13.5,25.1,18.6,38.4c7.6,19.7,11.4,40,10.7,61.1
	c-0.5,14.5-3,28.5-8.8,42c-2.3,5.3-5,10.2-8.4,14.9c-10.6,14.9-25.2,23.7-43.4,27.1c-4.8,0.9-9.8,1.3-14.7,1.3c-0.8,0-1.5,0-2.4,0
	c-0.4,1.7-0.9,3.2-1.2,4.7c-2.8,11.7-5.1,23.6-6.2,35.6c-1.5,17.2-1.1,34.3,3.2,51.2c2.6,10.3,6.8,19.9,13.4,28.3
	c7.8,9.8,17.5,16.7,30.1,19.5c10.7,2.4,21.3,1.4,31.5-2.3c12.5-4.5,22.9-11.7,29.7-23.1c7.8-13.2,8.1-26.7-0.1-39.9
	c-5.1-8.3-12.7-13.8-22.6-15.4c-12.2-2-23,0.9-31.5,10c-8.2,8.7-7.3,22.9,1.7,30.9c3.4,3.1,7.5,4.9,12.2,4.9c1,0,2.1-0.1,3.1-0.4
	c2.5-0.7,4.1-2.3,4.7-4.8c0.8-3.6,0.8-7.2,0.6-10.8c-0.1-0.9-0.2-1.9,0-2.9c0.5-3.1,3.7-4.3,6.2-2.4c0.8,0.6,1.5,1.5,1.9,2.4
	c0.6,1.4,1.1,2.8,1.3,4.3c0.7,4,0.3,8.1-0.7,12c-1.7,6.7-7.4,11.3-14.7,12c-6.7,0.6-12.7-1.1-18.1-4.8c-7.9-5.4-12.1-13-13.3-22.2
	c-1.6-11.4,2.7-20.7,11.5-28.1c9.3-7.8,20.3-10.8,32.5-10c17.9,1.2,34,14.2,39.1,32.8c3.7,13.4,1.6,26-5.8,37.9
	c-6.9,11.1-16.8,19-28.9,24.4c-13.1,5.8-26.7,8-40.9,5.2c-15.1-2.9-27-10.8-36.5-22.4c-7.8-9.5-12.6-20.3-15.7-32
	c-3.5-13.1-4.5-26.4-4.4-39.9c0.1-17.6,3.1-34.8,7.1-51.9C107,446.4,107.3,445.3,107.6,444.1z M109.8,434.8c0.3-0.5,0.4-0.6,0.5-0.7
	c3.6-12.9,7.6-25.7,10.5-38.9c2.5-11.6,4.2-23.3,3.1-35.2c-0.8-8.9-2.8-17.4-6.7-25.5c-6.2-12.6-15.5-22.2-28.8-27.9
	c-8-3.4-16.5-4.7-25.2-3.3c-15.1,2.5-26,10.6-32.9,23.8c-6.4,12.2-7.5,25.1-4.5,38.3c2.8,12.1,8.7,22.6,16.8,32
	c10.5,12.2,23.4,21.4,38,28.4c6.4,3.1,13,5.5,20,7.1C103.6,433.7,106.7,434.2,109.8,434.8z M191.1,222.5c11.4,0,23.6-1.8,34.4-5.2
	c7.5-2.4,14.5-5.7,20.6-10.5c2.5-2,4.7-4.2,6.4-6.8c3.1-4.9,3.9-10,2-15.5c-1.4-4.1-3.7-7.6-6.6-10.9c-4.8-5.3-10.6-9.3-17.2-12.4
	c-10.7-5-22.1-7.1-34-7.2c-12.1-0.2-23.8,2-34.8,7.2c-6.3,3-11.8,6.9-16.2,12.2c-5.4,6.4-8.3,13.7-8.4,22.1c0,6.3,1.7,12.3,4,18.1
	c0.4,1,1.2,1.4,2.2,1.7C158.4,220,173.6,222.5,191.1,222.5z"/>
</svg>
