<?xml version="1.0" encoding="utf-8"?>
<!-- Generator: Adobe Illustrator 25.4.1, SVG Export Plug-In . SVG Version: 6.00 Build 0)  -->
<svg version="1.1" id="Layer_1" xmlns="http://www.w3.org/2000/svg" xmlns:xlink="http://www.w3.org/1999/xlink" x="0px" y="0px"
	 viewBox="0 0 595.28 841.89" style="enable-background:new 0 0 595.28 841.89;" xml:space="preserve">
<path d="M459.19,383.05c-0.68,3.39-1.2,6.46-1.92,9.48c-4.56,19.33-13.63,36.46-25.64,52.11c-9.73,12.69-21.21,23.47-35.1,31.55
	c-15.15,8.81-31.39,13.53-49,12.55c-17.32-0.97-32.85-6.71-45.58-18.8c-18.98-18.03-24.26-45.23-13.57-69.52
	c8.12-18.44,21.9-31.23,40.2-39.27c15.09-6.63,30.99-8.72,47.35-7.9c15.66,0.79,30.86,4.18,45.95,8.19
	c8.11,2.15,16.18,4.44,24.28,6.66c0.76,0.21,1.54,0.39,2.52,0.63c0.08-0.71,0.23-1.3,0.21-1.88c-0.92-24.36-10.69-43.79-31.76-56.89
	c-10.88-6.76-22.79-10.83-35.32-13.07c-27.17-4.85-53.82-2.31-80.02,6c-11.92,3.78-23.4,8.66-34.49,14.39
	c-13.28,6.86-26.37,14.09-39.6,21.05c-8.63,4.54-17.34,8.92-26.05,13.3c-1.25,0.63-1.94,1.45-2.44,2.72
	c-17.25,44.89-45.14,82.16-81.53,113.25c-13.56,11.58-28.48,21.16-45,28.09c-11.35,4.76-23.09,7.99-35.4,9.04
	c-16.04,1.36-31.19-1.8-45.51-8.99c-23.12-11.6-38.05-30.21-46.12-54.52c-5.09-15.36-6.71-31.21-6-47.32
	c0.67-15.11,3.96-29.61,10.35-43.34c9.05-19.43,23.14-33.76,43.14-41.9c10.6-4.32,21.64-6.19,33.09-5.17
	c14.64,1.31,26.23,8.13,35.03,19.76c6.79,8.98,10.46,19.21,11.3,30.38c1.52,20.24-4.64,37.83-18.7,52.55
	c-9.28,9.71-20.83,13.57-34.07,12.86c-4.56-0.25-9.09-0.82-13.45-2.23c-2.35-0.76-4.7-1.63-6.87-2.78
	c-8.65-4.6-12.92-11.96-12.83-21.67c0.06-6.97,2.08-13.56,4.96-19.87c0.42-0.92,1.07-1.8,1.8-2.51c2.03-1.99,5.05-2.16,7.24-0.52
	c2.17,1.62,3.03,4.71,1.57,7.08c-2.19,3.56-3.09,7.51-4.01,11.48c-0.07,0.31-0.14,0.62-0.19,0.94c-1.37,8.5,1.76,13.95,9.92,16.72
	c7.57,2.57,15.34,3.09,23.18,1.42c5.56-1.18,10.19-4.11,14.2-8.06c8.86-8.72,14.09-19.32,15.86-31.57
	c1.58-10.87,0.28-21.4-4.84-31.25c-5.16-9.93-12.8-17.09-23.71-20.34c-6.56-1.95-13.26-2.01-19.97-1
	c-20.14,3.03-35.71,13.28-46.93,30.16c-6.78,10.2-10.92,21.52-13.11,33.5c-3.85,21.1-2.69,41.95,4.64,62.18
	c8.9,24.59,25.79,41.34,50.7,49.7c13.24,4.45,26.7,4.46,40.24,1.5c11.49-2.51,22.29-6.82,32.61-12.41
	c10.86-5.89,21-12.88,30.38-20.89c29.7-25.37,53.26-55.53,70.3-90.72c1.43-2.95,2.67-5.98,3.99-8.98c0.09-0.21,0.08-0.46,0.16-1.04
	c-1.03,0.25-1.91,0.46-2.8,0.67c-20.82,4.95-38.55-0.43-53.23-15.94c-4.43-4.68-7.93-10.02-10.82-15.77
	c-3.39-6.75-5.86-13.85-7.39-21.23c-4.5-21.71-2.95-42.95,5.5-63.53c4.31-10.5,10.59-19.69,19.25-27.14
	c4.83-4.16,10.18-7.46,16.3-9.4c9.49-3.01,18.47-1.83,26.95,3.32c4.71,2.86,8.57,6.66,11.93,10.99c6.77,8.71,11.2,18.58,14.34,29.08
	c4.51,15.09,5.99,30.56,5.53,46.24c-0.4,13.64-2.41,27.06-5.92,40.25c-0.18,0.66-0.26,1.35-0.45,2.41c1.11-0.54,1.89-0.9,2.65-1.3
	c12.18-6.56,24.35-13.12,36.52-19.68c14.58-7.85,29.33-15.33,44.85-21.18c23.01-8.66,46.78-12.94,71.4-12.15
	c16.92,0.54,33.37,3.43,49.06,10.02c6.14,2.58,11.96,5.73,17.44,9.52c17.42,12.02,27.71,28.64,31.72,49.28
	c1.07,5.51,1.54,11.08,1.52,16.69c0,0.87,0,1.73,0,2.74c1.94,0.49,3.71,0.97,5.48,1.38c13.71,3.21,27.54,5.82,41.58,7.01
	c20.1,1.7,40.11,1.24,59.82-3.61c11.99-2.95,23.22-7.69,33.07-15.28c11.44-8.81,19.58-19.9,22.85-34.18
	c2.8-12.21,1.62-24.17-2.72-35.83c-5.29-14.21-13.71-26.06-27.04-33.74c-15.48-8.92-31.24-9.16-46.65,0.13
	c-9.68,5.83-16.15,14.4-18.03,25.71c-2.3,13.82,1.11,26.13,11.7,35.75c10.22,9.29,26.78,8.26,36.12-1.94
	c3.58-3.91,5.71-8.47,5.69-13.86c0-1.18-0.17-2.4-0.49-3.54c-0.8-2.85-2.67-4.69-5.61-5.3c-4.18-0.88-8.41-0.92-12.65-0.63
	c-1.11,0.08-2.26,0.19-3.34,0c-3.57-0.62-5-4.22-2.78-7.1c0.7-0.91,1.72-1.74,2.77-2.2c1.59-0.7,3.31-1.22,5.02-1.52
	c4.72-0.82,9.42-0.38,14.03,0.77c7.85,1.96,13.19,8.38,14.02,16.68c0.75,7.58-1.29,14.44-5.61,20.61
	c-6.3,8.99-15.22,13.71-25.92,15.17c-13.34,1.81-24.19-3.06-32.82-13.05c-9.15-10.59-12.67-23.11-11.72-36.95
	c1.39-20.35,16.65-38.64,38.38-44.45c15.64-4.18,30.45-1.77,44.27,6.56c13.02,7.85,22.21,19.13,28.5,32.82
	c6.82,14.86,9.32,30.36,6.1,46.53c-3.41,17.16-12.68,30.71-26.18,41.5c-11.05,8.84-23.75,14.37-37.36,17.89
	c-15.28,3.94-30.87,5.12-46.6,5c-20.58-0.16-40.74-3.47-60.72-8.1C461.9,383.66,460.66,383.39,459.19,383.05z M448.32,380.5
	c-0.6-0.37-0.72-0.49-0.87-0.53c-15.1-4.12-30.09-8.68-45.43-11.92c-13.57-2.87-27.24-4.72-41.17-3.53
	c-10.36,0.88-20.36,3.18-29.78,7.66c-14.76,7.02-25.95,17.65-32.56,32.76c-4,9.14-5.52,18.71-3.84,28.59
	c2.92,17.12,12.45,29.54,27.8,37.37c14.23,7.26,29.3,8.56,44.81,5.12c14.12-3.13,26.43-9.89,37.42-19.12
	c14.24-11.96,24.98-26.64,33.24-43.22c3.61-7.25,6.44-14.8,8.3-22.69C447.06,387.52,447.64,383.98,448.32,380.5z M200.22,288.13
	c0.01-12.93-2.05-26.82-6.12-39.06c-2.82-8.48-6.63-16.45-12.32-23.43c-2.29-2.8-4.88-5.29-7.96-7.22
	c-5.69-3.56-11.72-4.41-18.14-2.29c-4.79,1.58-8.93,4.25-12.69,7.54c-6.23,5.46-10.91,12.08-14.46,19.52
	c-5.82,12.2-8.27,25.15-8.45,38.58c-0.18,13.8,2.33,27.04,8.36,39.52c3.45,7.14,8.09,13.41,14.26,18.45
	c7.5,6.12,16.03,9.46,25.8,9.49c7.41,0.02,14.37-1.94,21.21-4.52c1.22-0.46,1.65-1.36,2.01-2.46
	C197.21,325.32,200.13,307.97,200.22,288.13z"/>
</svg>
